<?xml version="1.0" standalone="no"?>
<!DOCTYPE svg PUBLIC "-//W3C//DTD SVG 20010904//EN"
 "http://www.w3.org/TR/2001/REC-SVG-20010904/DTD/svg10.dtd">
<svg version="1.0" xmlns="http://www.w3.org/2000/svg"
 width="200.000000pt" height="200.000000pt" viewBox="0 0 200.000000 200.000000"
 preserveAspectRatio="xMidYMid meet">

<g transform="translate(0.000000,200.000000) scale(0.100000,-0.100000)"
fill="#000000" stroke="none">
<path d="M372 1823 c-28 -11 -42 -62 -42 -153 l0 -90 -35 0 c-75 0 -125 -51
-125 -128 0 -65 63 -122 135 -122 25 0 25 -1 25 -80 0 -79 0 -80 -25 -80 -72
0 -135 -57 -135 -122 0 -77 50 -128 125 -128 l35 0 0 -85 0 -85 -31 0 c-44 0
-92 -25 -112 -59 -46 -79 4 -178 95 -188 l46 -5 4 -100 c3 -95 4 -101 31 -124
l28 -24 609 0 609 0 27 23 c23 20 28 34 32 85 l4 62 79 0 79 0 0 625 0 625
-80 0 -80 0 0 45 c0 51 -20 99 -45 109 -20 7 -1234 7 -1253 -1z m958 -408 l0
-165 -330 0 -330 0 0 165 0 165 330 0 330 0 0 -165z m420 65 l0 -100 -40 0
-40 0 0 100 0 100 40 0 40 0 0 -100z m-1256 -2 c8 -13 8 -23 0 -35 -9 -15 -29
-18 -114 -21 -105 -3 -130 4 -130 37 0 35 21 42 129 39 86 -3 106 -6 115 -20z
m1256 -293 l0 -105 -40 0 -40 0 0 105 0 105 40 0 40 0 0 -105z m-1256 -127 c8
-13 8 -23 0 -35 -9 -15 -29 -18 -114 -21 -105 -3 -130 4 -130 37 0 35 21 42
129 39 86 -3 106 -6 115 -20z m1256 -163 l0 -105 -40 0 -40 0 0 105 0 105 40
0 40 0 0 -105z m0 -290 l0 -105 -40 0 -40 0 0 105 0 105 40 0 40 0 0 -105z
m-1266 49 c9 -8 16 -22 16 -29 0 -34 -30 -45 -125 -45 -95 0 -125 11 -125 45
0 34 30 45 125 45 72 0 97 -4 109 -16z"/>
</g>
</svg>
